HIERARCHY
ROOT hip
{
  OFFSET 0 0 0
  CHANNELS 6 Xposition Yposition Zposition Zrotation Yrotation Xrotation
  JOINT abdomen
  {
    OFFSET 0 20.6881 -0.73152
    CHANNELS 3 Zrotation Xrotation Yrotation
    JOINT chest
    {
      OFFSET 0 11.7043 -0.48768
      CHANNELS 3 Zrotation Xrotation Yrotation
      JOINT neck
      {
        OFFSET 0 22.1894 -2.19456
        CHANNELS 3 Zrotation Xrotation Yrotation
        JOINT head
        {
          OFFSET -0.24384 7.07133 1.2192
          CHANNELS 3 Zrotation Xrotation Yrotation
          JOINT leftEye
          {
            OFFSET 4.14528 8.04674 8.04672
            CHANNELS 3 Zrotation Xrotation Yrotation
            End Site
            {
              OFFSET 1 0 0
            }
          }
          JOINT rightEye
          {
            OFFSET -3.6576 8.04674 8.04672
            CHANNELS 3 Zrotation Xrotation Yrotation
            End Site
            {
              OFFSET 1 0 0
            }
          }
        }
      }
      JOINT rCollar
      {
        OFFSET -2.68224 19.2634 -4.8768
        CHANNELS 3 Zrotation Xrotation Yrotation
        JOINT rShldr
        {
          OFFSET -8.77824 -1.95073 1.46304
          CHANNELS 3 Zrotation Xrotation Yrotation
          JOINT rForeArm
          {
            OFFSET -28.1742 -1.7115 0.48768
            CHANNELS 3 Zrotation Xrotation Yrotation
            JOINT rHand
            {
              OFFSET -22.5879 0.773209 7.07136
              CHANNELS 3 Zrotation Xrotation Yrotation
              JOINT rThumb1
              {
                OFFSET -1.2192 -0.487915 3.41376
                CHANNELS 3 Zrotation Xrotation Yrotation
                JOINT rThumb2
                {
                  OFFSET -3.37035 -0.52449 3.41376
                  CHANNELS 3 Zrotation Xrotation Yrotation
                  End Site
                  {
                    OFFSET -1.78271 -1.18214 1.43049
                  }
                }
              }
              JOINT rIndex1
              {
                OFFSET -7.75947 0.938293 5.60832
                CHANNELS 3 Zrotation Xrotation Yrotation
                JOINT rIndex2
                {
                  OFFSET -2.54057 -0.884171 1.56538
                  CHANNELS 3 Zrotation Xrotation Yrotation
                  End Site
                  {
                    OFFSET -1.62519 -0.234802 1.16502
                  }
                }
              }
              JOINT rMid1
              {
                OFFSET -8.24714 1.18213 3.41376
                CHANNELS 3 Zrotation Xrotation Yrotation
                JOINT rMid2
                {
                  OFFSET -3.10165 -0.590103 1.0647
                  CHANNELS 3 Zrotation Xrotation Yrotation
                  End Site
                  {
                    OFFSET -2.48547 -0.328903 0.83742
                  }
                }
              }
              JOINT rRing1
              {
                OFFSET -8.82822 0.546677 1.51678
                CHANNELS 3 Zrotation Xrotation Yrotation
                JOINT rRing2
                {
                  OFFSET -2.60934 -0.819778 -0.0198488
                  CHANNELS 3 Zrotation Xrotation Yrotation
                  End Site
                  {
                    OFFSET -2.33842 -0.294052 0.168128
                  }
                }
              }
              JOINT rPinky1
              {
                OFFSET -8.27202 -0.0477905 -0.4584
                CHANNELS 3 Zrotation Xrotation Yrotation
                JOINT rPinky2
                {
                  OFFSET -1.82734 -0.647385 -0.700984
                  CHANNELS 3 Zrotation Xrotation Yrotation
                  End Site
                  {
                    OFFSET -1.69225 -0.51767 -0.607171
                  }
                }
              }
            }
          }
        }
      }
      JOINT lCollar
      {
        OFFSET 2.68224 19.2634 -4.8768
        CHANNELS 3 Zrotation Xrotation Yrotation
        JOINT lShldr
        {
          OFFSET 8.77824 -1.95073 1.46304
          CHANNELS 3 Zrotation Xrotation Yrotation
          JOINT lForeArm
          {
            OFFSET 28.1742 -1.7115 0.48768
            CHANNELS 3 Zrotation Xrotation Yrotation
            JOINT lHand
            {
              OFFSET 22.5879 0.773209 7.07136
              CHANNELS 3 Zrotation Xrotation Yrotation
              JOINT lThumb1
              {
                OFFSET 1.2192 -0.487915 3.41376
                CHANNELS 3 Zrotation Xrotation Yrotation
                JOINT lThumb2
                {
                  OFFSET 3.37035 -0.52449 3.41376
                  CHANNELS 3 Zrotation Xrotation Yrotation
                  End Site
                  {
                    OFFSET 1.78271 -1.18214 1.43049
                  }
                }
              }
              JOINT lIndex1
              {
                OFFSET 7.75947 0.938293 5.60832
                CHANNELS 3 Zrotation Xrotation Yrotation
                JOINT lIndex2
                {
                  OFFSET 2.54057 -0.884171 1.56538
                  CHANNELS 3 Zrotation Xrotation Yrotation
                  End Site
                  {
                    OFFSET 1.62519 -0.234802 1.16502
                  }
                }
              }
              JOINT lMid1
              {
                OFFSET 8.24714 1.18213 3.41376
                CHANNELS 3 Zrotation Xrotation Yrotation
                JOINT lMid2
                {
                  OFFSET 3.10165 -0.590103 1.0647
                  CHANNELS 3 Zrotation Xrotation Yrotation
                  End Site
                  {
                    OFFSET 2.48547 -0.328903 0.83742
                  }
                }
              }
              JOINT lRing1
              {
                OFFSET 8.82822 0.546677 1.51678
                CHANNELS 3 Zrotation Xrotation Yrotation
                JOINT lRing2
                {
                  OFFSET 2.60934 -0.819778 -0.0198488
                  CHANNELS 3 Zrotation Xrotation Yrotation
                  End Site
                  {
                    OFFSET 2.33842 -0.294052 0.168128
                  }
                }
              }
              JOINT lPinky1
              {
                OFFSET 8.27202 -0.0477905 -0.4584
                CHANNELS 3 Zrotation Xrotation Yrotation
                JOINT lPinky2
                {
                  OFFSET 1.82734 -0.647385 -0.700984
                  CHANNELS 3 Zrotation Xrotation Yrotation
                  End Site
                  {
                    OFFSET 1.69225 -0.51767 -0.607171
                  }
                }
              }
            }
          }
        }
      }
    }
  }
  JOINT rButtock
  {
    OFFSET -8.77824 4.35084 1.2192
    CHANNELS 3 Zrotation Xrotation Yrotation
    JOINT rThigh
    {
      OFFSET 0 -1.70687 -2.19456
      CHANNELS 3 Zrotation Xrotation Yrotation
      JOINT rShin
      {
        OFFSET 0 -36.8199 0.73152
        CHANNELS 3 Zrotation Xrotation Yrotation
        JOINT rFoot
        {
          OFFSET 0.73152 -45.1104 -5.12064
          CHANNELS 3 Zrotation Xrotation Yrotation
          End Site
          {
            OFFSET -1.1221 -3.69964 12.103
          }
        }
      }
    }
  }
  JOINT lButtock
  {
    OFFSET 8.77824 4.35084 1.2192
    CHANNELS 3 Zrotation Xrotation Yrotation
    JOINT lThigh
    {
      OFFSET 0 -1.70687 -2.19456
      CHANNELS 3 Zrotation Xrotation Yrotation
      JOINT lShin
      {
        OFFSET 0 -36.8199 0.73152
        CHANNELS 3 Zrotation Xrotation Yrotation
        JOINT lFoot
        {
          OFFSET -0.73152 -45.1104 -5.12064
          CHANNELS 3 Zrotation Xrotation Yrotation
          End Site
          {
            OFFSET 1.1221 -3.69964 12.103
          }
        }
      }
    }
  }
}
MOTION
Frames:	4
Frame Time:	0.00833333
13.6136 83.8032 12.4673 -290.126 93.8899 -285.828 0.8753 2.15796 3.58667 -0.0703158 4.40755 1.01054 5.9727 10.016 -1.00319 -2.06855 -22.3882 -2.97672 -0.0 0.0 0.0 -0.0 0.0 0.0 3.56699e-13 4.94258e-12 -1.05555e-13 72.5589 21.8949 14.1724 -13.6136 -6.64682 24.7798 -0.00369311 1.73494 0.243906 -1.85889e-09 9.14667e-10 1.24107e-09 -3.20088e-09 1.5857e-09 2.14674e-09 -1.85889e-09 9.14671e-10 1.24105e-09 7.73091 5.47488 0.417314 -1.85889e-09 9.1467e-10 1.24106e-09 2.90554 0.965183 0.102902 -1.85888e-09 9.14671e-10 1.24106e-09 10.2786 0.731801 0.0259123 -1.8589e-09 9.14673e-10 1.24107e-09 2.22167 -0.733487 -0.20892 3.56514e-13 4.94258e-12 -1.05903e-13 -77.9061 4.34105 -2.26076 2.7435 -0.78289 -4.74065 0.029668 4.91072 -0.691868 -1.52032e-09 -2.15266e-09 -8.32555e-09 -2.65701e-09 -3.71527e-09 -1.43814e-08 -1.52033e-09 -2.15266e-09 -8.32554e-09 -7.73091 5.47488 -0.417314 -1.52032e-09 -2.15266e-09 -8.32554e-09 -2.90554 0.965183 -0.102902 -1.52033e-09 -2.15266e-09 -8.32554e-09 -10.2786 0.731801 -0.0259123 -1.52032e-09 -2.15265e-09 -8.32555e-09 -2.22167 -0.733487 0.20892 -2.03217e-16 0.0 -3.88251e-19 6.91773 -1.77637 4.39824 -0.0584302 14.2186 0.248955 -3.95759 -13.1099 -11.1505 2.03217e-16 0.0 3.88251e-19 1.34792 -39.827 -1.19258 0.472822 44.8788 -0.604711 -1.83137 -9.75567 -8.49574
14.4216 83.8459 12.468 -289.999 93.8419 -285.662 0.731132 2.09062 3.62761 -0.0671861 4.38054 1.01987 5.93177 10.0652 -0.98755 -2.01447 -22.5722 -2.93049 -0.0 0.0 0.0 -0.0 0.0 0.0 3.03876e-13 4.1147e-12 -9.40814e-14 72.438 22.0488 14.3694 -13.7735 -6.77406 25.0977 -0.00285623 1.52331 0.214139 -1.43229e-09 1.03205e-09 1.57438e-09 -2.46275e-09 1.78953e-09 2.72127e-09 -1.43229e-09 1.03206e-09 1.57436e-09 7.73091 5.47488 0.417314 -1.43229e-09 1.03206e-09 1.57437e-09 2.90554 0.965183 0.102902 -1.43229e-09 1.03206e-09 1.57437e-09 10.2786 0.731801 0.0259123 -1.4323e-09 1.03206e-09 1.57438e-09 2.22167 -0.733487 -0.20892 3.03711e-13 4.1147e-12 -9.44227e-14 -77.657 4.25474 -1.93758 2.67687 -0.761668 -4.62445 0.0263694 4.62896 -0.651995 -9.24154e-10 -2.42848e-09 -8.93911e-09 -1.62805e-09 -4.19354e-09 -1.54438e-08 -9.24165e-10 -2.42848e-09 -8.9391e-09 -7.73091 5.47488 -0.417314 -9.24156e-10 -2.42848e-09 -8.9391e-09 -2.90554 0.965183 -0.102902 -9.24164e-10 -2.42848e-09 -8.93911e-09 -10.2786 0.731801 -0.0259123 -9.24154e-10 -2.42848e-09 -8.93911e-09 -2.22167 -0.733487 0.20892 -2.03217e-16 0.0 -3.88251e-19 6.79444 -0.466358 4.28458 -0.0466265 12.6314 0.218815 -3.81678 -12.9174 -10.8416 2.03217e-16 0.0 3.88251e-19 1.43708 -39.9403 -1.04917 0.405832 42.144 -0.505236 -1.86987 -9.57277 -8.82037
15.2106 83.8511 12.4783 -287.639 93.7431 -283.181 0.578667 2.01522 3.64231 -0.0652874 4.35206 1.02209 5.87266 10.0599 -0.957713 -1.9237 -22.7584 -2.8532 -0.0 0.0 0.0 -0.0 0.0 0.0 1.94015e-13 2.52141e-12 -6.22413e-14 72.3383 22.2353 14.5525 -13.9569 -6.92105 25.4648 -0.00213239 1.31621 0.185015 -7.16223e-10 1.10026e-09 1.87825e-09 -1.22542e-09 1.90805e-09 3.2444e-09 -7.16221e-10 1.10026e-09 1.87824e-09 7.73091 5.47488 0.417314 -7.16222e-10 1.10026e-09 1.87825e-09 2.90554 0.965183 0.102902 -7.16217e-10 1.10026e-09 1.87825e-09 10.2786 0.731801 0.0259123 -7.1623e-10 1.10026e-09 1.87826e-09 2.22167 -0.733487 -0.20892 1.93899e-13 2.52141e-12 -6.25675e-14 -77.396 4.12239 -1.6342 2.58775 -0.732568 -4.46924 0.0233208 4.35942 -0.613873 -1.86621e-11 -2.60851e-09 -8.97395e-09 -6.20481e-11 -4.50714e-09 -1.55069e-08 -1.86721e-11 -2.60851e-09 -8.97394e-09 -7.73091 5.47488 -0.417314 -1.86647e-11 -2.60851e-09 -8.97394e-09 -2.90554 0.965183 -0.102902 -1.86718e-11 -2.60851e-09 -8.97394e-09 -10.2786 0.731801 -0.0259123 -1.86631e-11 -2.6085e-09 -8.97395e-09 -2.22167 -0.733487 0.20892 -2.03217e-16 0.0 -3.88251e-19 6.64625 0.915948 4.11624 -0.0340279 10.8627 0.185423 -3.63012 -12.6878 -10.3969 2.03217e-16 0.0 3.88251e-19 1.49688 -39.9842 -0.955309 0.344297 39.3218 -0.411849 -1.86315 -9.35554 -9.02666
16.0257 83.8574 12.4953 -287.002 93.7961 -282.454 0.442803 1.93575 3.64984 -0.0682545 4.35539 1.02326 5.82782 9.98369 -0.918618 -1.86391 -22.9146 -2.77328 -0.0 0.0 0.0 -0.0 0.0 0.0 7.12553e-14 7.39214e-13 -2.88125e-14 72.2405 22.4246 14.7601 -14.1391 -7.06816 25.8327 -0.00151726 1.11199 0.156299 5.61352e-11 1.098e-09 2.07387e-09 1.08367e-10 1.90435e-09 3.58061e-09 5.61389e-11 1.098e-09 2.07386e-09 7.73091 5.47488 0.417314 5.61377e-11 1.098e-09 2.07386e-09 2.90554 0.965183 0.102902 5.61408e-11 1.098e-09 2.07387e-09 10.2786 0.731801 0.0259123 5.61288e-11 1.098e-09 2.07387e-09 2.22167 -0.733487 -0.20892 7.11922e-14 7.39206e-13 -2.9122e-14 -77.1388 3.95669 -1.37624 2.49395 -0.701809 -4.30613 0.0208381 4.12462 -0.580686 9.21864e-10 -2.63148e-09 -8.43885e-09 1.56637e-09 -4.54943e-09 -1.45852e-08 9.21855e-10 -2.63148e-09 -8.43884e-09 -7.73091 5.47488 -0.417314 9.21861e-10 -2.63148e-09 -8.43884e-09 -2.90554 0.965183 -0.102902 9.21854e-10 -2.63148e-09 -8.43884e-09 -10.2786 0.731801 -0.0259123 9.21863e-10 -2.63148e-09 -8.43884e-09 -2.22167 -0.733487 0.20892 -2.03217e-16 0.0 -3.88251e-19 6.50474 2.34914 3.96654 -0.0224588 8.97759 0.150496 -3.42323 -12.3859 -9.91833 2.03217e-16 0.0 3.88251e-19 1.55631 -40.0103 -0.925451 0.292637 36.5852 -0.330461 -1.83153 -9.11413 -9.16237
